<?xml version="1.0"?>
<!DOCTYPE svg PUBLIC "-//W3C//DTD SVG 1.1//EN" "http://www.w3.org/Graphics/SVG/1.1/DTD/svg11.dtd">
<svg width="127.52366996mm" height="251.995225503mm" viewBox="0 0 127.52366996 251.995225503" xmlns="http://www.w3.org/2000/svg" version="1.1">
<g id="Edge005" transform="translate(126.273438,126.549873) scale(1,-1)">
<path id="Edge005_nwe0000"  d="M 3.83619510036e-15 125.299640861 A 125.299640861 125.299640861 0 0 1 -16.6003625788 -124.195120525 " stroke="#ff0000" stroke-width="1.35 px" style="stroke-width:1.35;stroke-miterlimit:4;stroke-dasharray:none;fill:none;fill-rule: evenodd "/>
<title>Edge005</title>
</g>
<g id="Edge008" transform="translate(126.273438,126.549873) scale(1,-1)">
<path id="Edge008_nwe0000"  d="M 1.66235121125e-15 27.14825552 A 27.14825552 27.14825552 0 0 1 -3.5967452254 -26.9089427804 " stroke="#ff0000" stroke-width="1.35 px" style="stroke-width:1.35;stroke-miterlimit:4;stroke-dasharray:none;fill:none;fill-rule: evenodd "/>
<title>Edge008</title>
</g>
<g id="Edge007" transform="translate(126.273438,126.549873) scale(1,-1)">
<path id="Edge007_nwe0000"  d="M 0.0 0.0 L -74.2572013538 -100.925061541 " stroke="#191919" stroke-width="1.35 px" style="stroke-width:1.35;stroke-miterlimit:4;stroke-dasharray:none;fill:none;fill-rule: evenodd "/>
<title>Edge007</title>
</g>
<g id="Edge001" transform="translate(126.273438,126.549873) scale(1,-1)">
<path id="Edge001_nwe0000"  d="M 0.0 0.0 L -105.632272167 67.3930491723 " stroke="#191919" stroke-width="1.35 px" style="stroke-width:1.35;stroke-miterlimit:4;stroke-dasharray:none;fill:none;fill-rule: evenodd "/>
<title>Edge001</title>
</g>
<g id="Edge009" transform="translate(126.273438,126.549873) scale(1,-1)">
<path id="Edge009_nwe0000"  d="M 4.66737070851e-15 76.2239481907 A 76.2239481907 76.2239481907 0 0 1 -10.0985539021 -75.5520316528 " stroke="#191919" stroke-width="1.35 px" style="stroke-width:1.35;stroke-miterlimit:4;stroke-dasharray:none;fill:none;fill-rule: evenodd "/>
<title>Edge009</title>
</g>
<g id="Edge006" transform="translate(126.273438,126.549873) scale(1,-1)">
<path id="Edge006_nwe0000"  d="M 0.0 0.0 L -16.6003625788 -124.195120525 " stroke="#191919" stroke-width="1.35 px" style="stroke-width:1.35;stroke-miterlimit:4;stroke-dasharray:none;fill:none;fill-rule: evenodd "/>
<title>Edge006</title>
</g>
<g id="Edge002" transform="translate(126.273438,126.549873) scale(1,-1)">
<path id="Edge002_nwe0000"  d="M 0.0 0.0 L -125.023205843 8.31853356848 " stroke="#191919" stroke-width="1.35 px" style="stroke-width:1.35;stroke-miterlimit:4;stroke-dasharray:none;fill:none;fill-rule: evenodd "/>
<title>Edge002</title>
</g>
<g id="Edge004" transform="translate(126.273438,126.549873) scale(1,-1)">
<path id="Edge004_nwe0000"  d="M 0.0 0.0 L 3.83619510036e-15 125.299640861 " stroke="#191919" stroke-width="1.35 px" style="stroke-width:1.35;stroke-miterlimit:4;stroke-dasharray:none;fill:none;fill-rule: evenodd "/>
<title>Edge004</title>
</g>
<g id="Edge003" transform="translate(126.273438,126.549873) scale(1,-1)">
<path id="Edge003_nwe0000"  d="M 0.0 0.0 L -113.629709765 -52.804252279 " stroke="#191919" stroke-width="1.35 px" style="stroke-width:1.35;stroke-miterlimit:4;stroke-dasharray:none;fill:none;fill-rule: evenodd "/>
<title>Edge003</title>
</g>
<g id="Edge" transform="translate(126.273438,126.549873) scale(1,-1)">
<path id="Edge_nwe0000"  d="M 0.0 0.0 L -60.2315330294 109.873392725 " stroke="#191919" stroke-width="1.35 px" style="stroke-width:1.35;stroke-miterlimit:4;stroke-dasharray:none;fill:none;fill-rule: evenodd "/>
<title>Edge</title>
</g>
<g id="Edge011" transform="translate(126.273438,126.549873) scale(1,-1)">
<path id="Edge011_nwe0000"  d="M 3.16486095988e-15 51.6861018553 A 51.6861018553 51.6861018553 0 0 1 -6.84764956374 -51.2304872166 " stroke="#191919" stroke-width="1.35 px" style="stroke-width:1.35;stroke-miterlimit:4;stroke-dasharray:none;fill:none;fill-rule: evenodd "/>
<title>Edge011</title>
</g>
<g id="Edge010" transform="translate(126.273438,126.549873) scale(1,-1)">
<path id="Edge010_nwe0000"  d="M 6.16988045713e-15 100.761794526 A 100.761794526 100.761794526 0 0 1 -13.3494582404 -99.873576089 " stroke="#191919" stroke-width="1.35 px" style="stroke-width:1.35;stroke-miterlimit:4;stroke-dasharray:none;fill:none;fill-rule: evenodd "/>
<title>Edge010</title>
</g>
</svg>
