<?xml version="1.0"?>
<!DOCTYPE svg PUBLIC "-//W3C//DTD SVG 1.1//EN" "http://www.w3.org/Graphics/SVG/1.1/DTD/svg11.dtd">
<svg width="131.597684194mm" height="256.07217286mm" viewBox="0 0 131.597684194 256.07217286" xmlns="http://www.w3.org/2000/svg" version="1.1">
<g id="Edge007" transform="translate(128.307511,128.588347) scale(1,-1)">
<path id="Edge007_nwe0000"  d="M 0.0 0.0 L -60.2315330294 109.873392725 " stroke="#191919" stroke-width="0.35 px" style="stroke-width:0.35;stroke-miterlimit:4;stroke-dasharray:none;fill:none;fill-rule: evenodd "/>
<title>Edge007</title>
</g>
<g id="Circle027" transform="translate(128.307511,128.588347) scale(1,-1)">
<circle cx="-30.6310955584" cy="-41.6315878858" r="2.0" stroke="#000000" stroke-width="0.35 px" style="stroke-width:0.35;stroke-miterlimit:4;stroke-dasharray:none;fill:none"/>
<title>Circle027</title>
</g>
<g id="Circle026" transform="translate(128.307511,128.588347) scale(1,-1)">
<circle cx="-6.84764956374" cy="-51.2304872166" r="2.0" stroke="#000000" stroke-width="0.35 px" style="stroke-width:0.35;stroke-miterlimit:4;stroke-dasharray:none;fill:none"/>
<title>Circle026</title>
</g>
<g id="Circle028" transform="translate(128.307511,128.588347) scale(1,-1)">
<circle cx="-45.1731308235" cy="-61.3960791043" r="2.0" stroke="#000000" stroke-width="0.35 px" style="stroke-width:0.35;stroke-miterlimit:4;stroke-dasharray:none;fill:none"/>
<title>Circle028</title>
</g>
<g id="Circle024" transform="translate(128.307511,128.588347) scale(1,-1)">
<circle cx="-13.3494582404" cy="-99.873576089" r="2.0" stroke="#000000" stroke-width="0.35 px" style="stroke-width:0.35;stroke-miterlimit:4;stroke-dasharray:none;fill:none"/>
<title>Circle024</title>
</g>
<g id="Circle022" transform="translate(128.307511,128.588347) scale(1,-1)">
<circle cx="-91.3772249359" cy="-42.463419541" r="2.0" stroke="#000000" stroke-width="0.35 px" style="stroke-width:0.35;stroke-miterlimit:4;stroke-dasharray:none;fill:none"/>
<title>Circle022</title>
</g>
<g id="Circle025" transform="translate(128.307511,128.588347) scale(1,-1)">
<circle cx="-10.0985539021" cy="-75.5520316528" r="2.0" stroke="#000000" stroke-width="0.35 px" style="stroke-width:0.35;stroke-miterlimit:4;stroke-dasharray:none;fill:none"/>
<title>Circle025</title>
</g>
<g id="Circle023" transform="translate(128.307511,128.588347) scale(1,-1)">
<circle cx="-59.7151660887" cy="-81.1605703228" r="2.0" stroke="#000000" stroke-width="0.35 px" style="stroke-width:0.35;stroke-miterlimit:4;stroke-dasharray:none;fill:none"/>
<title>Circle023</title>
</g>
<g id="Circle017" transform="translate(128.307511,128.588347) scale(1,-1)">
<path id="Circle017_nwe0000"  d="M 3.16486095988e-15 51.6861018553 A 51.6861018553 51.6861018553 0 0 1 -6.84764956374 -51.2304872166 " stroke="#000000" stroke-width="0.35 px" style="stroke-width:0.35;stroke-miterlimit:4;stroke-dasharray:none;fill:none;fill-rule: evenodd "/>
<title>Circle017</title>
</g>
<g id="Circle018" transform="translate(128.307511,128.588347) scale(1,-1)">
<circle cx="1.06210850725e-34" cy="100.761794526" r="2.0" stroke="#000000" stroke-width="0.35 px" style="stroke-width:0.35;stroke-miterlimit:4;stroke-dasharray:none;fill:none"/>
<title>Circle018</title>
</g>
<g id="Circle015" transform="translate(128.307511,128.588347) scale(1,-1)">
<path id="Circle015_nwe0000"  d="M 6.16988045713e-15 100.761794526 A 100.761794526 100.761794526 0 0 1 -13.3494582404 -99.873576089 " stroke="#000000" stroke-width="0.35 px" style="stroke-width:0.35;stroke-miterlimit:4;stroke-dasharray:none;fill:none;fill-rule: evenodd "/>
<title>Circle015</title>
</g>
<g id="Circle019" transform="translate(128.307511,128.588347) scale(1,-1)">
<circle cx="-48.4361911445" cy="88.3565199831" r="2.0" stroke="#000000" stroke-width="0.35 px" style="stroke-width:0.35;stroke-miterlimit:4;stroke-dasharray:none;fill:none"/>
<title>Circle019</title>
</g>
<g id="Circle020" transform="translate(128.307511,128.588347) scale(1,-1)">
<circle cx="-84.9459522013" cy="54.1952437094" r="2.0" stroke="#000000" stroke-width="0.35 px" style="stroke-width:0.35;stroke-miterlimit:4;stroke-dasharray:none;fill:none"/>
<title>Circle020</title>
</g>
<g id="Circle021" transform="translate(128.307511,128.588347) scale(1,-1)">
<circle cx="-100.539494699" cy="6.68948741132" r="2.0" stroke="#000000" stroke-width="0.35 px" style="stroke-width:0.35;stroke-miterlimit:4;stroke-dasharray:none;fill:none"/>
<title>Circle021</title>
</g>
<g id="Circle016" transform="translate(128.307511,128.588347) scale(1,-1)">
<path id="Circle016_nwe0000"  d="M 4.66737070851e-15 76.2239481907 A 76.2239481907 76.2239481907 0 0 1 -10.0985539021 -75.5520316528 " stroke="#000000" stroke-width="0.35 px" style="stroke-width:0.35;stroke-miterlimit:4;stroke-dasharray:none;fill:none;fill-rule: evenodd "/>
<title>Circle016</title>
</g>
<g id="Edge003" transform="translate(128.307511,128.588347) scale(1,-1)">
<path id="Edge003_nwe0000"  d="M -125.023205843 8.31853356848 L 0.0 0.0 " stroke="#191919" stroke-width="0.35 px" style="stroke-width:0.35;stroke-miterlimit:4;stroke-dasharray:none;fill:none;fill-rule: evenodd "/>
<title>Edge003</title>
</g>
<g id="Edge005" transform="translate(128.307511,128.588347) scale(1,-1)">
<path id="Edge005_nwe0000"  d="M 3.8361951054e-15 125.299640861 A 125.299640861 125.299640861 0 0 1 -16.6003625788 -124.195120525 " stroke="#191919" stroke-width="0.35 px" style="stroke-width:0.35;stroke-miterlimit:4;stroke-dasharray:none;fill:none;fill-rule: evenodd "/>
<title>Edge005</title>
</g>
<g id="Edge002" transform="translate(128.307511,128.588347) scale(1,-1)">
<path id="Edge002_nwe0000"  d="M 0.0 0.0 L -105.632272167 67.3930491723 " stroke="#191919" stroke-width="0.35 px" style="stroke-width:0.35;stroke-miterlimit:4;stroke-dasharray:none;fill:none;fill-rule: evenodd "/>
<title>Edge002</title>
</g>
<g id="Edge004" transform="translate(128.307511,128.588347) scale(1,-1)">
<path id="Edge004_nwe0000"  d="M 3.8361951054e-15 125.299640861 L 0.0 0.0 " stroke="#191919" stroke-width="0.35 px" style="stroke-width:0.35;stroke-miterlimit:4;stroke-dasharray:none;fill:none;fill-rule: evenodd "/>
<title>Edge004</title>
</g>
<g id="Edge" transform="translate(128.307511,128.588347) scale(1,-1)">
<path id="Edge_nwe0000"  d="M 0.0 0.0 L -113.629709765 -52.804252279 " stroke="#191919" stroke-width="0.35 px" style="stroke-width:0.35;stroke-miterlimit:4;stroke-dasharray:none;fill:none;fill-rule: evenodd "/>
<title>Edge</title>
</g>
<g id="Edge001" transform="translate(128.307511,128.588347) scale(1,-1)">
<path id="Edge001_nwe0000"  d="M -74.2572013538 -100.925061541 L 0.0 0.0 " stroke="#191919" stroke-width="0.35 px" style="stroke-width:0.35;stroke-miterlimit:4;stroke-dasharray:none;fill:none;fill-rule: evenodd "/>
<title>Edge001</title>
</g>
<g id="Edge006" transform="translate(128.307511,128.588347) scale(1,-1)">
<path id="Edge006_nwe0000"  d="M 0.0 0.0 L -16.6003625788 -124.195120525 " stroke="#191919" stroke-width="0.35 px" style="stroke-width:0.35;stroke-miterlimit:4;stroke-dasharray:none;fill:none;fill-rule: evenodd "/>
<title>Edge006</title>
</g>
<g id="Circle057" transform="translate(128.307511,128.588347) scale(1,-1)">
<circle cx="-27.088362" cy="1.802349" r="1.0" stroke="#000000" stroke-width="0.35 px" style="stroke-width:0.35;stroke-miterlimit:4;stroke-dasharray:none;fill:none"/>
<title>Circle057</title>
</g>
<g id="Circle051" transform="translate(128.307511,128.588347) scale(1,-1)">
<circle cx="-84.9459522013" cy="54.1952437094" r="1.0" stroke="#000000" stroke-width="0.35 px" style="stroke-width:0.35;stroke-miterlimit:4;stroke-dasharray:none;fill:none"/>
<title>Circle051</title>
</g>
<g id="Circle063" transform="translate(128.307511,128.588347) scale(1,-1)">
<circle cx="-74.2572013538" cy="-100.925061541" r="1.0" stroke="#000000" stroke-width="0.35 px" style="stroke-width:0.35;stroke-miterlimit:4;stroke-dasharray:none;fill:none"/>
<title>Circle063</title>
</g>
<g id="Circle054" transform="translate(128.307511,128.588347) scale(1,-1)">
<circle cx="-100.539494699" cy="6.68948741132" r="1.0" stroke="#000000" stroke-width="0.35 px" style="stroke-width:0.35;stroke-miterlimit:4;stroke-dasharray:none;fill:none"/>
<title>Circle054</title>
</g>
<g id="Circle064" transform="translate(128.307511,128.588347) scale(1,-1)">
<circle cx="-59.7151660887" cy="-81.1605703228" r="1.0" stroke="#000000" stroke-width="0.35 px" style="stroke-width:0.35;stroke-miterlimit:4;stroke-dasharray:none;fill:none"/>
<title>Circle064</title>
</g>
<g id="Circle065" transform="translate(128.307511,128.588347) scale(1,-1)">
<circle cx="-45.1731308235" cy="-61.3960791043" r="1.0" stroke="#000000" stroke-width="0.35 px" style="stroke-width:0.35;stroke-miterlimit:4;stroke-dasharray:none;fill:none"/>
<title>Circle065</title>
</g>
<g id="Circle053" transform="translate(128.307511,128.588347) scale(1,-1)">
<circle cx="-125.023205843" cy="8.31853356848" r="1.0" stroke="#000000" stroke-width="0.35 px" style="stroke-width:0.35;stroke-miterlimit:4;stroke-dasharray:none;fill:none"/>
<title>Circle053</title>
</g>
<g id="Circle066" transform="translate(128.307511,128.588347) scale(1,-1)">
<circle cx="-30.6310955584" cy="-41.6315878858" r="1.0" stroke="#000000" stroke-width="0.35 px" style="stroke-width:0.35;stroke-miterlimit:4;stroke-dasharray:none;fill:none"/>
<title>Circle066</title>
</g>
<g id="Circle069" transform="translate(128.307511,128.588347) scale(1,-1)">
<circle cx="-6.84764956374" cy="-51.2304872166" r="1.0" stroke="#000000" stroke-width="0.35 px" style="stroke-width:0.35;stroke-miterlimit:4;stroke-dasharray:none;fill:none"/>
<title>Circle069</title>
</g>
<g id="Circle070" transform="translate(128.307511,128.588347) scale(1,-1)">
<circle cx="-10.0985539021" cy="-75.5520316528" r="1.0" stroke="#000000" stroke-width="0.35 px" style="stroke-width:0.35;stroke-miterlimit:4;stroke-dasharray:none;fill:none"/>
<title>Circle070</title>
</g>
<g id="Circle055" transform="translate(128.307511,128.588347) scale(1,-1)">
<circle cx="-76.0557835545" cy="5.06044125416" r="1.0" stroke="#000000" stroke-width="0.35 px" style="stroke-width:0.35;stroke-miterlimit:4;stroke-dasharray:none;fill:none"/>
<title>Circle055</title>
</g>
<g id="Circle060" transform="translate(128.307511,128.588347) scale(1,-1)">
<circle cx="-69.124740107" cy="-32.1225868031" r="1.0" stroke="#000000" stroke-width="0.35 px" style="stroke-width:0.35;stroke-miterlimit:4;stroke-dasharray:none;fill:none"/>
<title>Circle060</title>
</g>
<g id="Circle068" transform="translate(128.307511,128.588347) scale(1,-1)">
<circle cx="-3.5967452254" cy="-26.9089427804" r="1.0" stroke="#000000" stroke-width="0.35 px" style="stroke-width:0.35;stroke-miterlimit:4;stroke-dasharray:none;fill:none"/>
<title>Circle068</title>
</g>
<g id="Circle056" transform="translate(128.307511,128.588347) scale(1,-1)">
<circle cx="-51.5720724103" cy="3.431395097" r="1.0" stroke="#000000" stroke-width="0.35 px" style="stroke-width:0.35;stroke-miterlimit:4;stroke-dasharray:none;fill:none"/>
<title>Circle056</title>
</g>
<g id="Circle062" transform="translate(128.307511,128.588347) scale(1,-1)">
<circle cx="-113.629709765" cy="-52.804252279" r="1.0" stroke="#000000" stroke-width="0.35 px" style="stroke-width:0.35;stroke-miterlimit:4;stroke-dasharray:none;fill:none"/>
<title>Circle062</title>
</g>
<g id="Circle058" transform="translate(128.307511,128.588347) scale(1,-1)">
<circle cx="-24.6197704491" cy="-11.4409213271" r="1.0" stroke="#000000" stroke-width="0.35 px" style="stroke-width:0.35;stroke-miterlimit:4;stroke-dasharray:none;fill:none"/>
<title>Circle058</title>
</g>
<g id="Circle059" transform="translate(128.307511,128.588347) scale(1,-1)">
<circle cx="-46.872255278" cy="-21.7817540651" r="1.0" stroke="#000000" stroke-width="0.35 px" style="stroke-width:0.35;stroke-miterlimit:4;stroke-dasharray:none;fill:none"/>
<title>Circle059</title>
</g>
<g id="Circle067" transform="translate(128.307511,128.588347) scale(1,-1)">
<circle cx="-16.0890602933" cy="-21.8670966673" r="1.0" stroke="#000000" stroke-width="0.35 px" style="stroke-width:0.35;stroke-miterlimit:4;stroke-dasharray:none;fill:none"/>
<title>Circle067</title>
</g>
<g id="Circle061" transform="translate(128.307511,128.588347) scale(1,-1)">
<circle cx="-91.3772249359" cy="-42.463419541" r="1.0" stroke="#000000" stroke-width="0.35 px" style="stroke-width:0.35;stroke-miterlimit:4;stroke-dasharray:none;fill:none"/>
<title>Circle061</title>
</g>
<g id="Circle052" transform="translate(128.307511,128.588347) scale(1,-1)">
<circle cx="-105.632272167" cy="67.3930491723" r="1.0" stroke="#000000" stroke-width="0.35 px" style="stroke-width:0.35;stroke-miterlimit:4;stroke-dasharray:none;fill:none"/>
<title>Circle052</title>
</g>
<g id="Circle050" transform="translate(128.307511,128.588347) scale(1,-1)">
<circle cx="-64.2596322352" cy="40.9974382465" r="1.0" stroke="#000000" stroke-width="0.35 px" style="stroke-width:0.35;stroke-miterlimit:4;stroke-dasharray:none;fill:none"/>
<title>Circle050</title>
</g>
<g id="Circle073" transform="translate(128.307511,128.588347) scale(1,-1)">
<circle cx="-1.92220992307e-41" cy="51.6861018553" r="1.0" stroke="#000000" stroke-width="0.35 px" style="stroke-width:0.35;stroke-miterlimit:4;stroke-dasharray:none;fill:none"/>
<title>Circle073</title>
</g>
<g id="Circle072" transform="translate(128.307511,128.588347) scale(1,-1)">
<circle cx="-16.6003625788" cy="-124.195120525" r="1.0" stroke="#000000" stroke-width="0.35 px" style="stroke-width:0.35;stroke-miterlimit:4;stroke-dasharray:none;fill:none"/>
<title>Circle072</title>
</g>
<g id="Circle071" transform="translate(128.307511,128.588347) scale(1,-1)">
<circle cx="-13.3494582404" cy="-99.873576089" r="1.0" stroke="#000000" stroke-width="0.35 px" style="stroke-width:0.35;stroke-miterlimit:4;stroke-dasharray:none;fill:none"/>
<title>Circle071</title>
</g>
<g id="Circle046" transform="translate(128.307511,128.588347) scale(1,-1)">
<circle cx="-1.91570446127e-38" cy="27.14825552" r="1.0" stroke="#000000" stroke-width="0.35 px" style="stroke-width:0.35;stroke-miterlimit:4;stroke-dasharray:none;fill:none"/>
<title>Circle046</title>
</g>
<g id="Circle040" transform="translate(128.307511,128.588347) scale(1,-1)">
<circle cx="1.06210850725e-34" cy="100.761794526" r="1.0" stroke="#000000" stroke-width="0.35 px" style="stroke-width:0.35;stroke-miterlimit:4;stroke-dasharray:none;fill:none"/>
<title>Circle040</title>
</g>
<g id="Circle038" transform="translate(128.307511,128.588347) scale(1,-1)">
<circle cx="-24.8455073746" cy="45.3227744991" r="2.0" stroke="#000000" stroke-width="0.35 px" style="stroke-width:0.35;stroke-miterlimit:4;stroke-dasharray:none;fill:none"/>
<title>Circle038</title>
</g>
<g id="Circle048" transform="translate(128.307511,128.588347) scale(1,-1)">
<circle cx="-43.5733122691" cy="27.7996327836" r="1.0" stroke="#000000" stroke-width="0.35 px" style="stroke-width:0.35;stroke-miterlimit:4;stroke-dasharray:none;fill:none"/>
<title>Circle048</title>
</g>
<g id="Circle049" transform="translate(128.307511,128.588347) scale(1,-1)">
<circle cx="-22.8869923029" cy="14.6018273207" r="1.0" stroke="#000000" stroke-width="0.35 px" style="stroke-width:0.35;stroke-miterlimit:4;stroke-dasharray:none;fill:none"/>
<title>Circle049</title>
</g>
<g id="Circle034" transform="translate(128.307511,128.588347) scale(1,-1)">
<circle cx="-36.6408492596" cy="66.8396472411" r="2.0" stroke="#000000" stroke-width="0.35 px" style="stroke-width:0.35;stroke-miterlimit:4;stroke-dasharray:none;fill:none"/>
<title>Circle034</title>
</g>
<g id="Circle047" transform="translate(128.307511,128.588347) scale(1,-1)">
<circle cx="-13.0501654897" cy="23.8059017571" r="1.0" stroke="#000000" stroke-width="0.35 px" style="stroke-width:0.35;stroke-miterlimit:4;stroke-dasharray:none;fill:none"/>
<title>Circle047</title>
</g>
<g id="Circle030" transform="translate(128.307511,128.588347) scale(1,-1)">
<circle cx="-46.872255278" cy="-21.7817540651" r="2.0" stroke="#000000" stroke-width="0.35 px" style="stroke-width:0.35;stroke-miterlimit:4;stroke-dasharray:none;fill:none"/>
<title>Circle030</title>
</g>
<g id="Circle029" transform="translate(128.307511,128.588347) scale(1,-1)">
<circle cx="-69.124740107" cy="-32.1225868031" r="2.0" stroke="#000000" stroke-width="0.35 px" style="stroke-width:0.35;stroke-miterlimit:4;stroke-dasharray:none;fill:none"/>
<title>Circle029</title>
</g>
<g id="Circle036" transform="translate(128.307511,128.588347) scale(1,-1)">
<circle cx="-1.92220992307e-41" cy="51.6861018553" r="2.0" stroke="#000000" stroke-width="0.35 px" style="stroke-width:0.35;stroke-miterlimit:4;stroke-dasharray:none;fill:none"/>
<title>Circle036</title>
</g>
<g id="Circle037" transform="translate(128.307511,128.588347) scale(1,-1)">
<circle cx="-43.5733122691" cy="27.7996327836" r="2.0" stroke="#000000" stroke-width="0.35 px" style="stroke-width:0.35;stroke-miterlimit:4;stroke-dasharray:none;fill:none"/>
<title>Circle037</title>
</g>
<g id="Circle033" transform="translate(128.307511,128.588347) scale(1,-1)">
<circle cx="-64.2596322352" cy="40.9974382465" r="2.0" stroke="#000000" stroke-width="0.35 px" style="stroke-width:0.35;stroke-miterlimit:4;stroke-dasharray:none;fill:none"/>
<title>Circle033</title>
</g>
<g id="Circle043" transform="translate(128.307511,128.588347) scale(1,-1)">
<circle cx="-48.4361911445" cy="88.3565199831" r="1.0" stroke="#000000" stroke-width="0.35 px" style="stroke-width:0.35;stroke-miterlimit:4;stroke-dasharray:none;fill:none"/>
<title>Circle043</title>
</g>
<g id="Circle031" transform="translate(128.307511,128.588347) scale(1,-1)">
<circle cx="-76.0557835545" cy="5.06044125416" r="2.0" stroke="#000000" stroke-width="0.35 px" style="stroke-width:0.35;stroke-miterlimit:4;stroke-dasharray:none;fill:none"/>
<title>Circle031</title>
</g>
<g id="Circle032" transform="translate(128.307511,128.588347) scale(1,-1)">
<circle cx="-51.5720724103" cy="3.431395097" r="2.0" stroke="#000000" stroke-width="0.35 px" style="stroke-width:0.35;stroke-miterlimit:4;stroke-dasharray:none;fill:none"/>
<title>Circle032</title>
</g>
<g id="Circle035" transform="translate(128.307511,128.588347) scale(1,-1)">
<circle cx="-1.88525936234e-34" cy="76.2239481907" r="2.0" stroke="#000000" stroke-width="0.35 px" style="stroke-width:0.35;stroke-miterlimit:4;stroke-dasharray:none;fill:none"/>
<title>Circle035</title>
</g>
<g id="Circle041" transform="translate(128.307511,128.588347) scale(1,-1)">
<circle cx="1.06214381743e-34" cy="125.299640861" r="1.0" stroke="#000000" stroke-width="0.35 px" style="stroke-width:0.35;stroke-miterlimit:4;stroke-dasharray:none;fill:none"/>
<title>Circle041</title>
</g>
<g id="Circle044" transform="translate(128.307511,128.588347) scale(1,-1)">
<circle cx="-36.6408492596" cy="66.8396472411" r="1.0" stroke="#000000" stroke-width="0.35 px" style="stroke-width:0.35;stroke-miterlimit:4;stroke-dasharray:none;fill:none"/>
<title>Circle044</title>
</g>
<g id="Circle045" transform="translate(128.307511,128.588347) scale(1,-1)">
<circle cx="-24.8455073746" cy="45.3227744991" r="1.0" stroke="#000000" stroke-width="0.35 px" style="stroke-width:0.35;stroke-miterlimit:4;stroke-dasharray:none;fill:none"/>
<title>Circle045</title>
</g>
<g id="Circle039" transform="translate(128.307511,128.588347) scale(1,-1)">
<circle cx="-1.88525936234e-34" cy="76.2239481907" r="1.0" stroke="#000000" stroke-width="0.35 px" style="stroke-width:0.35;stroke-miterlimit:4;stroke-dasharray:none;fill:none"/>
<title>Circle039</title>
</g>
<g id="Circle042" transform="translate(128.307511,128.588347) scale(1,-1)">
<circle cx="-60.2315330294" cy="109.873392725" r="1.0" stroke="#000000" stroke-width="0.35 px" style="stroke-width:0.35;stroke-miterlimit:4;stroke-dasharray:none;fill:none"/>
<title>Circle042</title>
</g>
<g id="Circle001" transform="translate(128.307511,128.588347) scale(1,-1)">
<circle cx="-1.91570446127e-38" cy="27.14825552" r="2.0" stroke="#000000" stroke-width="0.35 px" style="stroke-width:0.35;stroke-miterlimit:4;stroke-dasharray:none;fill:none"/>
<title>Circle001</title>
</g>
<g id="Circle011" transform="translate(128.307511,128.588347) scale(1,-1)">
<circle cx="-3.5967452254" cy="-26.9089427804" r="2.0" stroke="#000000" stroke-width="0.35 px" style="stroke-width:0.35;stroke-miterlimit:4;stroke-dasharray:none;fill:none"/>
<title>Circle011</title>
</g>
<g id="Circle012" transform="translate(128.307511,128.588347) scale(1,-1)">
<circle cx="-113.629709765" cy="-52.804252279" r="2.0" stroke="#000000" stroke-width="0.35 px" style="stroke-width:0.35;stroke-miterlimit:4;stroke-dasharray:none;fill:none"/>
<title>Circle012</title>
</g>
<g id="Circle013" transform="translate(128.307511,128.588347) scale(1,-1)">
<circle cx="-74.2572013538" cy="-100.925061541" r="2.0" stroke="#000000" stroke-width="0.35 px" style="stroke-width:0.35;stroke-miterlimit:4;stroke-dasharray:none;fill:none"/>
<title>Circle013</title>
</g>
<g id="Circle006" transform="translate(128.307511,128.588347) scale(1,-1)">
<circle cx="-13.0501654897" cy="23.8059017571" r="2.0" stroke="#000000" stroke-width="0.35 px" style="stroke-width:0.35;stroke-miterlimit:4;stroke-dasharray:none;fill:none"/>
<title>Circle006</title>
</g>
<g id="Circle014" transform="translate(128.307511,128.588347) scale(1,-1)">
<circle cx="-16.6003625788" cy="-124.195120525" r="2.0" stroke="#000000" stroke-width="0.35 px" style="stroke-width:0.35;stroke-miterlimit:4;stroke-dasharray:none;fill:none"/>
<title>Circle014</title>
</g>
<g id="Circle003" transform="translate(128.307511,128.588347) scale(1,-1)">
<circle cx="-60.2315330294" cy="109.873392725" r="2.0" stroke="#000000" stroke-width="0.35 px" style="stroke-width:0.35;stroke-miterlimit:4;stroke-dasharray:none;fill:none"/>
<title>Circle003</title>
</g>
<g id="Circle004" transform="translate(128.307511,128.588347) scale(1,-1)">
<circle cx="-105.632272167" cy="67.3930491723" r="2.0" stroke="#000000" stroke-width="0.35 px" style="stroke-width:0.35;stroke-miterlimit:4;stroke-dasharray:none;fill:none"/>
<title>Circle004</title>
</g>
<g id="Circle009" transform="translate(128.307511,128.588347) scale(1,-1)">
<circle cx="-24.6197704491" cy="-11.4409213271" r="2.0" stroke="#000000" stroke-width="0.35 px" style="stroke-width:0.35;stroke-miterlimit:4;stroke-dasharray:none;fill:none"/>
<title>Circle009</title>
</g>
<g id="Circle" transform="translate(128.307511,128.588347) scale(1,-1)">
<path id="Circle_nwe0000"  d="M 1.66235121125e-15 27.14825552 A 27.14825552 27.14825552 0 0 1 -3.5967452254 -26.9089427804 " stroke="#000000" stroke-width="0.35 px" style="stroke-width:0.35;stroke-miterlimit:4;stroke-dasharray:none;fill:none;fill-rule: evenodd "/>
<title>Circle</title>
</g>
<g id="Circle002" transform="translate(128.307511,128.588347) scale(1,-1)">
<circle cx="1.06214381743e-34" cy="125.299640861" r="2.0" stroke="#000000" stroke-width="0.35 px" style="stroke-width:0.35;stroke-miterlimit:4;stroke-dasharray:none;fill:none"/>
<title>Circle002</title>
</g>
<g id="Circle005" transform="translate(128.307511,128.588347) scale(1,-1)">
<circle cx="-125.023205843" cy="8.31853356848" r="2.0" stroke="#000000" stroke-width="0.35 px" style="stroke-width:0.35;stroke-miterlimit:4;stroke-dasharray:none;fill:none"/>
<title>Circle005</title>
</g>
<g id="Circle007" transform="translate(128.307511,128.588347) scale(1,-1)">
<circle cx="-22.8869923029" cy="14.6018273207" r="2.0" stroke="#000000" stroke-width="0.35 px" style="stroke-width:0.35;stroke-miterlimit:4;stroke-dasharray:none;fill:none"/>
<title>Circle007</title>
</g>
<g id="Circle008" transform="translate(128.307511,128.588347) scale(1,-1)">
<circle cx="-27.088361266" cy="1.80234893984" r="2.0" stroke="#000000" stroke-width="0.35 px" style="stroke-width:0.35;stroke-miterlimit:4;stroke-dasharray:none;fill:none"/>
<title>Circle008</title>
</g>
<g id="Circle010" transform="translate(128.307511,128.588347) scale(1,-1)">
<circle cx="-16.0890602933" cy="-21.8670966673" r="2.0" stroke="#000000" stroke-width="0.35 px" style="stroke-width:0.35;stroke-miterlimit:4;stroke-dasharray:none;fill:none"/>
<title>Circle010</title>
</g>
</svg>